<svg id="Layer_4" data-name="Layer 4" xmlns="http://www.w3.org/2000/svg" viewBox="0 0 150 190"><defs><style>.cls-1,.cls-6,.cls-7{fill:#fff;}.cls-11,.cls-14,.cls-2{fill:#231f20;}.cls-12,.cls-2,.cls-3,.cls-4,.cls-5,.cls-8{stroke:#231f20;}.cls-12,.cls-2,.cls-3,.cls-4,.cls-5,.cls-7,.cls-8{stroke-miterlimit:10;}.cls-2{stroke-width:2.01px;}.cls-3,.cls-4,.cls-5,.cls-8{fill:none;}.cls-3{stroke-width:0.45px;}.cls-4{stroke-width:0.92px;}.cls-5{stroke-width:0.41px;}.cls-6{font-size:9.85px;}.cls-13,.cls-14,.cls-6{font-family:CenturyGothic-Bold, Century Gothic;font-weight:700;}.cls-7{stroke:#fff;stroke-width:1.02px;}.cls-12,.cls-7,.cls-8{stroke-linecap:round;}.cls-9{fill:#ffd017;}.cls-10{fill:#efb616;}.cls-12{fill:#fc0;}.cls-13,.cls-14{font-size:10px;}</style></defs><title>Artboard 1</title><rect class="cls-1" width="150" height="190"/><circle class="cls-2" cx="75" cy="95" r="51.28"/><path class="cls-3" d="M106,64.34a31,31,0,1,0-62,0l31,31Z"/><line class="cls-3" x1="75" y1="95.33" x2="46.52" y2="52.09"/><line class="cls-3" x1="75" y1="95.33" x2="103.48" y2="52.09"/><line class="cls-3" x1="75" y1="95.33" x2="55.37" y2="40.34"/><line class="cls-3" x1="75" y1="95.33" x2="94.63" y2="40.34"/><path class="cls-3" d="M94.9,56.27a31,31,0,0,0-59,19.16L75,95.33Z"/><line class="cls-3" x1="75" y1="95.33" x2="34.55" y2="63"/><line class="cls-3" x1="75" y1="95.33" x2="88.72" y2="45.4"/><line class="cls-3" x1="75" y1="95.33" x2="39.34" y2="49.1"/><line class="cls-3" x1="75" y1="95.33" x2="76.67" y2="36.97"/><path class="cls-3" d="M81.86,52A31,31,0,0,0,31.7,88.48L75,95.33Z"/><line class="cls-3" x1="75" y1="95.33" x2="26.54" y2="77.09"/><line class="cls-3" x1="75" y1="95.33" x2="72.62" y2="43.61"/><line class="cls-3" x1="75" y1="95.33" x2="26.8" y2="62.38"/><line class="cls-3" x1="75" y1="95.33" x2="58.56" y2="39.31"/><path class="cls-3" d="M68.14,52A31,31,0,0,0,31.7,102.19L75,95.33Z"/><line class="cls-3" x1="75" y1="95.33" x2="23.27" y2="92.95"/><line class="cls-3" x1="75" y1="95.33" x2="56.75" y2="46.87"/><line class="cls-3" x1="75" y1="95.33" x2="18.98" y2="78.89"/><line class="cls-3" x1="75" y1="95.33" x2="42.05" y2="47.13"/><path class="cls-3" d="M55.1,56.27a31,31,0,1,0-19.16,59L75,95.33Z"/><line class="cls-3" x1="75" y1="95.33" x2="25.07" y2="109.06"/><line class="cls-3" x1="75" y1="95.33" x2="42.67" y2="54.88"/><line class="cls-3" x1="75" y1="95.33" x2="16.64" y2="97.01"/><line class="cls-3" x1="75" y1="95.33" x2="28.77" y2="59.68"/><path class="cls-3" d="M44,64.34a31,31,0,1,0,0,62l31-31Z"/><line class="cls-3" x1="75" y1="95.33" x2="31.75" y2="123.81"/><line class="cls-3" x1="75" y1="95.33" x2="31.75" y2="66.86"/><line class="cls-3" x1="75" y1="95.33" x2="20.01" y2="114.96"/><line class="cls-3" x1="75" y1="95.33" x2="20.01" y2="75.71"/><path class="cls-3" d="M35.94,75.43a31,31,0,0,0,19.16,59L75,95.33Z"/><line class="cls-3" x1="75" y1="95.33" x2="42.67" y2="135.78"/><line class="cls-3" x1="75" y1="95.33" x2="25.07" y2="81.61"/><line class="cls-3" x1="75" y1="95.33" x2="28.77" y2="130.99"/><line class="cls-3" x1="75" y1="95.33" x2="16.64" y2="93.66"/><path class="cls-3" d="M31.7,88.48a31,31,0,0,0,36.44,50.16L75,95.33Z"/><line class="cls-3" x1="75" y1="95.33" x2="56.75" y2="143.8"/><line class="cls-3" x1="75" y1="95.33" x2="23.27" y2="97.72"/><line class="cls-3" x1="75" y1="95.33" x2="42.05" y2="143.54"/><line class="cls-3" x1="75" y1="95.33" x2="18.98" y2="111.78"/><path class="cls-3" d="M31.7,102.19a31,31,0,1,0,50.16,36.44L75,95.33Z"/><line class="cls-3" x1="75" y1="95.33" x2="72.62" y2="147.06"/><line class="cls-3" x1="75" y1="95.33" x2="26.54" y2="113.58"/><line class="cls-3" x1="75" y1="95.33" x2="58.56" y2="151.36"/><line class="cls-3" x1="75" y1="95.33" x2="26.8" y2="128.29"/><path class="cls-3" d="M35.94,115.24a31,31,0,1,0,59,19.16L75,95.33Z"/><line class="cls-3" x1="75" y1="95.33" x2="88.72" y2="145.27"/><line class="cls-3" x1="75" y1="95.33" x2="34.55" y2="127.67"/><line class="cls-3" x1="75" y1="95.33" x2="76.67" y2="153.7"/><line class="cls-3" x1="75" y1="95.33" x2="39.34" y2="141.57"/><path class="cls-3" d="M44,126.33a31,31,0,1,0,62,0l-31-31Z"/><line class="cls-3" x1="75" y1="95.33" x2="103.48" y2="138.58"/><line class="cls-3" x1="75" y1="95.33" x2="46.52" y2="138.58"/><line class="cls-3" x1="75" y1="95.33" x2="94.63" y2="150.33"/><line class="cls-3" x1="75" y1="95.33" x2="55.37" y2="150.33"/><path class="cls-3" d="M55.1,134.39a31,31,0,1,0,59-19.16L75,95.33Z"/><line class="cls-3" x1="75" y1="95.33" x2="115.45" y2="127.67"/><line class="cls-3" x1="75" y1="95.33" x2="61.28" y2="145.27"/><line class="cls-3" x1="75" y1="95.33" x2="110.66" y2="141.57"/><line class="cls-3" x1="75" y1="95.33" x2="73.33" y2="153.7"/><path class="cls-3" d="M68.14,138.63a31,31,0,1,0,50.16-36.44L75,95.33Z"/><line class="cls-3" x1="75" y1="95.33" x2="123.46" y2="113.58"/><line class="cls-3" x1="75" y1="95.33" x2="77.38" y2="147.06"/><line class="cls-3" x1="75" y1="95.33" x2="123.2" y2="128.29"/><line class="cls-3" x1="75" y1="95.33" x2="91.44" y2="151.36"/><path class="cls-3" d="M81.86,138.63A31,31,0,0,0,118.3,88.48L75,95.33Z"/><line class="cls-3" x1="75" y1="95.33" x2="126.73" y2="97.72"/><line class="cls-3" x1="75" y1="95.33" x2="93.25" y2="143.8"/><line class="cls-3" x1="75" y1="95.33" x2="131.02" y2="111.78"/><line class="cls-3" x1="75" y1="95.33" x2="107.95" y2="143.54"/><path class="cls-3" d="M94.9,134.39a31,31,0,0,0,19.16-59L75,95.33Z"/><line class="cls-3" x1="75" y1="95.33" x2="124.93" y2="81.61"/><line class="cls-3" x1="75" y1="95.33" x2="107.33" y2="135.78"/><line class="cls-3" x1="75" y1="95.33" x2="133.36" y2="93.66"/><line class="cls-3" x1="75" y1="95.33" x2="121.23" y2="130.99"/><path class="cls-3" d="M106,126.33a31,31,0,1,0,0-62l-31,31Z"/><line class="cls-3" x1="75" y1="95.33" x2="118.25" y2="66.86"/><line class="cls-3" x1="75" y1="95.33" x2="118.25" y2="123.81"/><line class="cls-3" x1="75" y1="95.33" x2="129.99" y2="75.71"/><line class="cls-3" x1="75" y1="95.33" x2="129.99" y2="114.96"/><path class="cls-3" d="M114.06,115.24a31,31,0,0,0-19.16-59L75,95.33Z"/><line class="cls-3" x1="75" y1="95.33" x2="107.33" y2="54.88"/><line class="cls-3" x1="75" y1="95.33" x2="124.93" y2="109.06"/><line class="cls-3" x1="75" y1="95.33" x2="121.23" y2="59.68"/><line class="cls-3" x1="75" y1="95.33" x2="133.36" y2="97.01"/><path class="cls-3" d="M118.3,102.19A31,31,0,0,0,81.86,52L75,95.33Z"/><line class="cls-3" x1="75" y1="95.33" x2="93.25" y2="46.87"/><line class="cls-3" x1="75" y1="95.33" x2="126.73" y2="92.95"/><line class="cls-3" x1="75" y1="95.33" x2="107.95" y2="47.13"/><line class="cls-3" x1="75" y1="95.33" x2="131.02" y2="78.89"/><path class="cls-3" d="M118.3,88.48A31,31,0,0,0,68.14,52L75,95.33Z"/><line class="cls-3" x1="75" y1="95.33" x2="77.38" y2="43.61"/><line class="cls-3" x1="75" y1="95.33" x2="123.46" y2="77.09"/><line class="cls-3" x1="75" y1="95.33" x2="91.44" y2="39.31"/><line class="cls-3" x1="75" y1="95.33" x2="123.2" y2="62.38"/><path class="cls-3" d="M114.06,75.43a31,31,0,1,0-59-19.16L75,95.33Z"/><line class="cls-3" x1="75" y1="95.33" x2="61.28" y2="45.4"/><line class="cls-3" x1="75" y1="95.33" x2="115.45" y2="63"/><line class="cls-3" x1="75" y1="95.33" x2="73.33" y2="36.97"/><line class="cls-3" x1="75" y1="95.33" x2="110.66" y2="49.1"/><path class="cls-4" d="M107.1,63.23a32.1,32.1,0,1,0-64.2,0L75,95.33Z"/><line class="cls-4" x1="75" y1="95.33" x2="45.51" y2="50.55"/><line class="cls-4" x1="75" y1="95.33" x2="104.49" y2="50.55"/><line class="cls-4" x1="75" y1="95.33" x2="54.67" y2="38.39"/><line class="cls-4" x1="75" y1="95.33" x2="95.33" y2="38.39"/><path class="cls-4" d="M95.61,54.88A32.1,32.1,0,1,0,34.55,74.72L75,95.33Z"/><line class="cls-4" x1="75" y1="95.33" x2="33.11" y2="61.85"/><line class="cls-4" x1="75" y1="95.33" x2="89.21" y2="43.62"/><line class="cls-4" x1="75" y1="95.33" x2="38.07" y2="47.45"/><line class="cls-4" x1="75" y1="95.33" x2="76.73" y2="34.89"/><path class="cls-4" d="M82.1,50.49A32.1,32.1,0,1,0,30.16,88.23L75,95.33Z"/><line class="cls-4" x1="75" y1="95.33" x2="24.81" y2="76.44"/><line class="cls-4" x1="75" y1="95.33" x2="72.53" y2="41.76"/><line class="cls-4" x1="75" y1="95.33" x2="25.08" y2="61.21"/><line class="cls-4" x1="75" y1="95.33" x2="57.97" y2="37.31"/><path class="cls-4" d="M67.9,50.49a32.1,32.1,0,0,0-37.74,51.94L75,95.33Z"/><line class="cls-4" x1="75" y1="95.33" x2="21.43" y2="92.87"/><line class="cls-4" x1="75" y1="95.33" x2="56.1" y2="45.15"/><line class="cls-4" x1="75" y1="95.33" x2="16.98" y2="78.3"/><line class="cls-4" x1="75" y1="95.33" x2="40.87" y2="45.42"/><path class="cls-4" d="M54.39,54.88a32.1,32.1,0,1,0-19.84,61.06L75,95.33Z"/><line class="cls-4" x1="75" y1="95.33" x2="23.29" y2="109.54"/><line class="cls-4" x1="75" y1="95.33" x2="41.52" y2="53.44"/><line class="cls-4" x1="75" y1="95.33" x2="14.56" y2="97.07"/><line class="cls-4" x1="75" y1="95.33" x2="27.12" y2="58.41"/><path class="cls-4" d="M42.9,63.23a32.1,32.1,0,0,0,0,64.2L75,95.33Z"/><line class="cls-4" x1="75" y1="95.33" x2="30.21" y2="124.83"/><line class="cls-4" x1="75" y1="95.33" x2="30.21" y2="65.84"/><line class="cls-4" x1="75" y1="95.33" x2="18.05" y2="115.66"/><line class="cls-4" x1="75" y1="95.33" x2="18.05" y2="75.01"/><path class="cls-4" d="M34.55,74.72a32.1,32.1,0,0,0,19.84,61.06L75,95.33Z"/><line class="cls-4" x1="75" y1="95.33" x2="41.52" y2="137.22"/><line class="cls-4" x1="75" y1="95.33" x2="23.29" y2="81.13"/><line class="cls-4" x1="75" y1="95.33" x2="27.12" y2="132.26"/><line class="cls-4" x1="75" y1="95.33" x2="14.56" y2="93.6"/><path class="cls-4" d="M30.16,88.23A32.1,32.1,0,1,0,67.9,140.18L75,95.33Z"/><line class="cls-4" x1="75" y1="95.33" x2="56.1" y2="145.52"/><line class="cls-4" x1="75" y1="95.33" x2="21.43" y2="97.8"/><line class="cls-4" x1="75" y1="95.33" x2="40.87" y2="145.25"/><line class="cls-4" x1="75" y1="95.33" x2="16.98" y2="112.36"/><path class="cls-4" d="M30.16,102.44A32.1,32.1,0,0,0,82.1,140.18L75,95.33Z"/><line class="cls-4" x1="75" y1="95.33" x2="72.53" y2="148.91"/><line class="cls-4" x1="75" y1="95.33" x2="24.81" y2="114.23"/><line class="cls-4" x1="75" y1="95.33" x2="57.97" y2="153.35"/><line class="cls-4" x1="75" y1="95.33" x2="25.08" y2="129.46"/><path class="cls-4" d="M34.55,115.95a32.1,32.1,0,1,0,61.06,19.84L75,95.33Z"/><line class="cls-4" x1="75" y1="95.33" x2="89.21" y2="147.05"/><line class="cls-4" x1="75" y1="95.33" x2="33.11" y2="128.82"/><line class="cls-4" x1="75" y1="95.33" x2="76.73" y2="155.78"/><line class="cls-4" x1="75" y1="95.33" x2="38.07" y2="143.22"/><path class="cls-4" d="M42.9,127.44a32.1,32.1,0,1,0,64.2,0L75,95.33Z"/><line class="cls-4" x1="75" y1="95.33" x2="104.49" y2="140.12"/><line class="cls-4" x1="75" y1="95.33" x2="45.51" y2="140.12"/><line class="cls-4" x1="75" y1="95.33" x2="95.33" y2="152.28"/><line class="cls-4" x1="75" y1="95.33" x2="54.67" y2="152.28"/><path class="cls-4" d="M54.39,135.79a32.1,32.1,0,1,0,61.06-19.84L75,95.33Z"/><line class="cls-4" x1="75" y1="95.33" x2="116.89" y2="128.82"/><line class="cls-4" x1="75" y1="95.33" x2="60.79" y2="147.05"/><line class="cls-4" x1="75" y1="95.33" x2="111.93" y2="143.22"/><line class="cls-4" x1="75" y1="95.33" x2="73.27" y2="155.78"/><path class="cls-4" d="M67.9,140.18a32.1,32.1,0,0,0,51.94-37.74L75,95.33Z"/><line class="cls-4" x1="75" y1="95.33" x2="125.19" y2="114.23"/><line class="cls-4" x1="75" y1="95.33" x2="77.47" y2="148.91"/><line class="cls-4" x1="75" y1="95.33" x2="124.92" y2="129.46"/><line class="cls-4" x1="75" y1="95.33" x2="92.03" y2="153.35"/><path class="cls-4" d="M82.1,140.18a32.1,32.1,0,0,0,37.74-51.94L75,95.33Z"/><line class="cls-4" x1="75" y1="95.33" x2="128.57" y2="97.8"/><line class="cls-4" x1="75" y1="95.33" x2="93.9" y2="145.52"/><line class="cls-4" x1="75" y1="95.33" x2="133.02" y2="112.36"/><line class="cls-4" x1="75" y1="95.33" x2="109.13" y2="145.25"/><path class="cls-4" d="M95.61,135.79a32.1,32.1,0,0,0,19.84-61.06L75,95.33Z"/><line class="cls-4" x1="75" y1="95.33" x2="126.71" y2="81.13"/><line class="cls-4" x1="75" y1="95.33" x2="108.48" y2="137.22"/><line class="cls-4" x1="75" y1="95.33" x2="135.44" y2="93.6"/><line class="cls-4" x1="75" y1="95.33" x2="122.88" y2="132.26"/><path class="cls-4" d="M107.1,127.44a32.1,32.1,0,0,0,0-64.2L75,95.33Z"/><line class="cls-4" x1="75" y1="95.33" x2="119.79" y2="65.84"/><line class="cls-4" x1="75" y1="95.33" x2="119.79" y2="124.83"/><line class="cls-4" x1="75" y1="95.33" x2="131.95" y2="75.01"/><line class="cls-4" x1="75" y1="95.33" x2="131.95" y2="115.66"/><path class="cls-4" d="M115.45,115.95A32.1,32.1,0,1,0,95.61,54.88L75,95.33Z"/><line class="cls-4" x1="75" y1="95.33" x2="108.48" y2="53.44"/><line class="cls-4" x1="75" y1="95.33" x2="126.71" y2="109.54"/><line class="cls-4" x1="75" y1="95.33" x2="122.88" y2="58.41"/><line class="cls-4" x1="75" y1="95.33" x2="135.44" y2="97.07"/><path class="cls-4" d="M119.84,102.44A32.1,32.1,0,0,0,82.1,50.49L75,95.33Z"/><line class="cls-4" x1="75" y1="95.33" x2="93.9" y2="45.15"/><line class="cls-4" x1="75" y1="95.33" x2="128.57" y2="92.87"/><line class="cls-4" x1="75" y1="95.33" x2="109.13" y2="45.42"/><line class="cls-4" x1="75" y1="95.33" x2="133.02" y2="78.3"/><path class="cls-4" d="M119.84,88.23A32.1,32.1,0,0,0,67.9,50.49L75,95.33Z"/><line class="cls-4" x1="75" y1="95.33" x2="77.47" y2="41.76"/><line class="cls-4" x1="75" y1="95.33" x2="125.19" y2="76.44"/><line class="cls-4" x1="75" y1="95.33" x2="92.03" y2="37.31"/><line class="cls-4" x1="75" y1="95.33" x2="124.92" y2="61.21"/><path class="cls-4" d="M115.45,74.72A32.1,32.1,0,1,0,54.39,54.88L75,95.33Z"/><line class="cls-4" x1="75" y1="95.33" x2="60.79" y2="43.62"/><line class="cls-4" x1="75" y1="95.33" x2="116.89" y2="61.85"/><line class="cls-4" x1="75" y1="95.33" x2="73.27" y2="34.89"/><line class="cls-4" x1="75" y1="95.33" x2="111.93" y2="47.45"/><path class="cls-5" d="M102.94,67.4a27.94,27.94,0,0,0-55.88,0L75,95.33Z"/><line class="cls-5" x1="75" y1="95.33" x2="49.33" y2="56.36"/><line class="cls-5" x1="75" y1="95.33" x2="100.67" y2="56.36"/><line class="cls-5" x1="75" y1="95.33" x2="57.31" y2="45.77"/><line class="cls-5" x1="75" y1="95.33" x2="92.69" y2="45.77"/><path class="cls-5" d="M92.94,60.13A27.94,27.94,0,1,0,39.8,77.4L75,95.33Z"/><line class="cls-5" x1="75" y1="95.33" x2="38.54" y2="66.2"/><line class="cls-5" x1="75" y1="95.33" x2="87.37" y2="50.33"/><line class="cls-5" x1="75" y1="95.33" x2="42.86" y2="53.67"/><line class="cls-5" x1="75" y1="95.33" x2="76.51" y2="42.73"/><path class="cls-5" d="M81.18,56.31A27.94,27.94,0,0,0,36,89.15l39,6.18Z"/><line class="cls-5" x1="75" y1="95.33" x2="31.32" y2="78.89"/><line class="cls-5" x1="75" y1="95.33" x2="72.85" y2="48.71"/><line class="cls-5" x1="75" y1="95.33" x2="31.56" y2="65.64"/><line class="cls-5" x1="75" y1="95.33" x2="60.18" y2="44.84"/><path class="cls-5" d="M68.82,56.31A27.94,27.94,0,1,0,36,101.52l39-6.18Z"/><line class="cls-5" x1="75" y1="95.33" x2="28.38" y2="93.19"/><line class="cls-5" x1="75" y1="95.33" x2="58.55" y2="51.66"/><line class="cls-5" x1="75" y1="95.33" x2="24.51" y2="80.51"/><line class="cls-5" x1="75" y1="95.33" x2="45.3" y2="51.89"/><path class="cls-5" d="M57.06,60.13A27.94,27.94,0,0,0,39.8,113.27L75,95.33Z"/><line class="cls-5" x1="75" y1="95.33" x2="30" y2="107.7"/><line class="cls-5" x1="75" y1="95.33" x2="45.86" y2="58.88"/><line class="cls-5" x1="75" y1="95.33" x2="22.4" y2="96.84"/><line class="cls-5" x1="75" y1="95.33" x2="33.33" y2="63.2"/><path class="cls-5" d="M47.06,67.4a27.94,27.94,0,1,0,0,55.88L75,95.33Z"/><line class="cls-5" x1="75" y1="95.33" x2="36.02" y2="121"/><line class="cls-5" x1="75" y1="95.33" x2="36.02" y2="69.67"/><line class="cls-5" x1="75" y1="95.33" x2="25.44" y2="113.02"/><line class="cls-5" x1="75" y1="95.33" x2="25.44" y2="77.65"/><path class="cls-5" d="M39.8,77.4a27.94,27.94,0,1,0,17.27,53.14L75,95.33Z"/><line class="cls-5" x1="75" y1="95.33" x2="45.86" y2="131.79"/><line class="cls-5" x1="75" y1="95.33" x2="30" y2="82.97"/><line class="cls-5" x1="75" y1="95.33" x2="33.33" y2="127.47"/><line class="cls-5" x1="75" y1="95.33" x2="22.4" y2="93.83"/><path class="cls-5" d="M36,89.15a27.94,27.94,0,0,0,32.84,45.2l6.18-39Z"/><line class="cls-5" x1="75" y1="95.33" x2="58.55" y2="139.01"/><line class="cls-5" x1="75" y1="95.33" x2="28.38" y2="97.48"/><line class="cls-5" x1="75" y1="95.33" x2="45.3" y2="138.78"/><line class="cls-5" x1="75" y1="95.33" x2="24.51" y2="110.16"/><path class="cls-5" d="M36,101.52a27.94,27.94,0,1,0,45.2,32.84L75,95.33Z"/><line class="cls-5" x1="75" y1="95.33" x2="72.85" y2="141.96"/><line class="cls-5" x1="75" y1="95.33" x2="31.32" y2="111.78"/><line class="cls-5" x1="75" y1="95.33" x2="60.18" y2="145.83"/><line class="cls-5" x1="75" y1="95.33" x2="31.56" y2="125.03"/><path class="cls-5" d="M39.8,113.27a27.94,27.94,0,1,0,53.14,17.27L75,95.33Z"/><line class="cls-5" x1="75" y1="95.33" x2="87.37" y2="140.34"/><line class="cls-5" x1="75" y1="95.33" x2="38.54" y2="124.47"/><line class="cls-5" x1="75" y1="95.33" x2="76.51" y2="147.94"/><line class="cls-5" x1="75" y1="95.33" x2="42.86" y2="137"/><path class="cls-5" d="M47.06,123.27a27.94,27.94,0,1,0,55.88,0L75,95.33Z"/><line class="cls-5" x1="75" y1="95.33" x2="100.67" y2="134.31"/><line class="cls-5" x1="75" y1="95.33" x2="49.33" y2="134.31"/><line class="cls-5" x1="75" y1="95.33" x2="92.69" y2="144.9"/><line class="cls-5" x1="75" y1="95.33" x2="57.31" y2="144.9"/><path class="cls-5" d="M57.06,130.54a27.94,27.94,0,1,0,53.14-17.27L75,95.33Z"/><line class="cls-5" x1="75" y1="95.33" x2="111.46" y2="124.47"/><line class="cls-5" x1="75" y1="95.33" x2="62.63" y2="140.34"/><line class="cls-5" x1="75" y1="95.33" x2="107.14" y2="137"/><line class="cls-5" x1="75" y1="95.33" x2="73.49" y2="147.94"/><path class="cls-5" d="M68.82,134.36A27.94,27.94,0,1,0,114,101.52L75,95.33Z"/><line class="cls-5" x1="75" y1="95.33" x2="118.68" y2="111.78"/><line class="cls-5" x1="75" y1="95.33" x2="77.15" y2="141.96"/><line class="cls-5" x1="75" y1="95.33" x2="118.44" y2="125.03"/><line class="cls-5" x1="75" y1="95.33" x2="89.82" y2="145.83"/><path class="cls-5" d="M81.18,134.36A27.94,27.94,0,0,0,114,89.15L75,95.33Z"/><line class="cls-5" x1="75" y1="95.33" x2="121.62" y2="97.48"/><line class="cls-5" x1="75" y1="95.33" x2="91.45" y2="139.01"/><line class="cls-5" x1="75" y1="95.33" x2="125.49" y2="110.16"/><line class="cls-5" x1="75" y1="95.33" x2="104.7" y2="138.78"/><path class="cls-5" d="M92.94,130.54A27.94,27.94,0,1,0,110.2,77.4L75,95.33Z"/><line class="cls-5" x1="75" y1="95.33" x2="120" y2="82.97"/><line class="cls-5" x1="75" y1="95.33" x2="104.14" y2="131.79"/><line class="cls-5" x1="75" y1="95.33" x2="127.6" y2="93.83"/><line class="cls-5" x1="75" y1="95.33" x2="116.67" y2="127.47"/><path class="cls-5" d="M102.94,123.27a27.94,27.94,0,1,0,0-55.88L75,95.33Z"/><line class="cls-5" x1="75" y1="95.33" x2="113.98" y2="69.67"/><line class="cls-5" x1="75" y1="95.33" x2="113.98" y2="121"/><line class="cls-5" x1="75" y1="95.33" x2="124.56" y2="77.65"/><line class="cls-5" x1="75" y1="95.33" x2="124.56" y2="113.02"/><path class="cls-5" d="M110.2,113.27A27.94,27.94,0,1,0,92.94,60.13L75,95.33Z"/><line class="cls-5" x1="75" y1="95.33" x2="104.14" y2="58.88"/><line class="cls-5" x1="75" y1="95.33" x2="120" y2="107.7"/><line class="cls-5" x1="75" y1="95.33" x2="116.67" y2="63.2"/><line class="cls-5" x1="75" y1="95.33" x2="127.6" y2="96.84"/><path class="cls-5" d="M114,101.52a27.94,27.94,0,0,0-32.84-45.2L75,95.33Z"/><line class="cls-5" x1="75" y1="95.33" x2="91.45" y2="51.66"/><line class="cls-5" x1="75" y1="95.33" x2="121.62" y2="93.19"/><line class="cls-5" x1="75" y1="95.33" x2="104.7" y2="51.89"/><line class="cls-5" x1="75" y1="95.33" x2="125.49" y2="80.51"/><path class="cls-5" d="M114,89.15a27.94,27.94,0,1,0-45.2-32.84l6.18,39Z"/><line class="cls-5" x1="75" y1="95.33" x2="77.15" y2="48.71"/><line class="cls-5" x1="75" y1="95.33" x2="118.68" y2="78.89"/><line class="cls-5" x1="75" y1="95.33" x2="89.82" y2="44.84"/><line class="cls-5" x1="75" y1="95.33" x2="118.44" y2="65.64"/><path class="cls-5" d="M110.2,77.4A27.94,27.94,0,1,0,57.06,60.13L75,95.33Z"/><line class="cls-5" x1="75" y1="95.33" x2="62.63" y2="50.33"/><line class="cls-5" x1="75" y1="95.33" x2="111.46" y2="66.2"/><line class="cls-5" x1="75" y1="95.33" x2="73.49" y2="42.73"/><line class="cls-5" x1="75" y1="95.33" x2="107.14" y2="53.67"/><text class="cls-6" transform="translate(30.1 112.68) rotate(63.53)">G</text><text class="cls-6" transform="translate(34.65 121.24) rotate(53.85)">E</text><text class="cls-6" transform="translate(38.5 126.47) rotate(44.87)">N</text><text class="cls-6" transform="translate(44.78 132.45) rotate(35.87)">E</text><text class="cls-6" transform="translate(50.03 136.16) rotate(27.86)">R</text><text class="cls-6" transform="matrix(0.95, 0.32, -0.32, 0.95, 56.37, 139.45)">A</text><text class="cls-6" transform="translate(64.63 141.97) rotate(9.77)">L</text><text class="cls-6" transform="translate(70.03 142.8) rotate(4.19)"> </text><text class="cls-6" transform="translate(74.03 143.16) rotate(-3.17)">A</text><text class="cls-6" transform="translate(82.66 142.49) rotate(-12.19)">S</text><text class="cls-6" transform="matrix(0.94, -0.34, 0.34, 0.94, 88.9, 141.05)">S</text><text class="cls-6" transform="translate(94.89 138.8) rotate(-27.56)">E</text><text class="cls-6" transform="matrix(0.79, -0.61, 0.61, 0.79, 100.76, 135.77)">M</text><text class="cls-6" transform="translate(108.78 129.23) rotate(-48.03)">B</text><text class="cls-6" transform="matrix(0.57, -0.82, 0.82, 0.57, 113.35, 123.97)">L</text><text class="cls-6" transform="translate(116.52 119.3) rotate(-63.27)">Y</text><text class="cls-6" transform="matrix(0.41, -0.91, 0.91, 0.41, 36.32, 82.33)">G</text><text class="cls-6" transform="matrix(0.56, -0.83, 0.83, 0.56, 40.04, 74.43)">E</text><text class="cls-6" transform="matrix(0.69, -0.72, 0.72, 0.69, 43.15, 69.75)">N</text><text class="cls-6" transform="matrix(0.8, -0.6, 0.6, 0.8, 48.6, 64.22)">E</text><text class="cls-6" transform="translate(53.1 60.84) rotate(-28.64)">R</text><text class="cls-6" transform="translate(58.51 57.85) rotate(-18.74)">A</text><text class="cls-6" transform="matrix(0.99, -0.17, 0.17, 0.99, 65.92, 55.5)">L</text><text class="cls-6" transform="matrix(1, -0.07, 0.07, 1, 70.77, 54.74)"> </text><text class="cls-6" transform="translate(74.06 54.4) rotate(3.81)">A</text><text class="cls-6" transform="matrix(0.97, 0.23, -0.23, 0.97, 81.79, 55.04)">S</text><text class="cls-6" transform="translate(87.27 56.37) rotate(21.3)">S</text><text class="cls-6" transform="matrix(0.87, 0.49, -0.49, 0.87, 92.52, 58.46)">E</text><text class="cls-6" transform="translate(97.46 61.08) rotate(39.83)">M</text><text class="cls-6" transform="translate(104.47 67.18) rotate(50.68)">B</text><text class="cls-6" transform="matrix(0.52, 0.85, -0.85, 0.52, 108.37, 72.07)">L</text><text class="cls-6" transform="translate(110.92 76.2) rotate(66.68)">Y</text><circle class="cls-7" cx="75" cy="95" r="36.15"/><circle class="cls-8" cx="75" cy="95" r="35.47"/><path class="cls-9" d="M85.45,99C85.23,92.78,80.64,87.78,75,87.78S64.77,92.78,64.55,99h0v20.83H85.47V99Z"/><path class="cls-10" d="M85.47,99h0C85.22,92.78,80.64,87.78,75,87.78v32.09H85.47Z"/><circle class="cls-11" cx="79.03" cy="97.09" r="1.6"/><path class="cls-9" d="M90.82,85.87,89,84.14l-1.78,1.74-1.78-1.74v15.1L88,107.81a6.74,6.74,0,0,0,4.56-5.92h0V84.14Z"/><path class="cls-11" d="M85.47,101.58v6.68a7.52,7.52,0,0,0,2.56-.45l-2.56-8.57Z"/><path class="cls-9" d="M90.82,85.87,89,84.14l-1.78,1.74-1.78-1.74v15.1L88,107.81a6.74,6.74,0,0,0,4.56-5.92h0V84.14Z"/><path class="cls-11" d="M85.47,101.58v6.68a7.52,7.52,0,0,0,2.56-.45l-2.56-8.57Z"/><path class="cls-9" d="M59.18,85.87,61,84.14l1.78,1.74,1.78-1.74v15.1L62,107.81a6.74,6.74,0,0,1-4.56-5.92h0V84.14Z"/><path class="cls-11" d="M64.53,101.58v6.68a7.52,7.52,0,0,1-2.56-.45l2.56-8.57Z"/><rect class="cls-11" x="69.77" y="101.2" width="10.45" height="7.06" rx="2.41" ry="2.41"/><path class="cls-1" d="M74.4,108.26H72.66l.87-.87Z"/><path class="cls-1" d="M75.87,108.26H74.13l.87-.87Z"/><path class="cls-1" d="M77.34,108.26H75.6l.87-1.43Z"/><path class="cls-1" d="M73.53,102.63l-.87-1.43H74.4Z"/><path class="cls-1" d="M75,102.07l-.87-.87h1.74Z"/><path class="cls-1" d="M76.47,102.07l-.87-.87h1.74Z"/><path class="cls-11" d="M71,95.48a1.6,1.6,0,0,0-1.6,1.6h3.21A1.6,1.6,0,0,0,71,95.48Z"/><path class="cls-12" d="M75,59.53A35.47,35.47,0,1,0,110.47,95,35.47,35.47,0,0,0,75,59.53Zm0,59.3A23.84,23.84,0,1,1,98.84,95,23.84,23.84,0,0,1,75,118.84Z"/><text class="cls-13" transform="translate(45.18 110.01) rotate(56.9)">A</text><text class="cls-13" transform="translate(49.94 116.85) rotate(45.34)">T</text><text class="cls-13" transform="matrix(0.8, 0.6, -0.6, 0.8, 53.41, 120.3)">L</text><text class="cls-13" transform="translate(57.7 123.57) rotate(24.94)">A</text><text class="cls-13" transform="matrix(0.98, 0.17, -0.17, 0.98, 65.57, 127.06)">N</text><text class="cls-13" transform="translate(73.8 128.25) rotate(-1.45)">T</text><text class="cls-13" transform="matrix(0.97, -0.23, 0.23, 0.97, 78.97, 128.19)">A</text><text class="cls-13" transform="translate(86.92 126.06) rotate(-23.37)">,</text><text class="cls-13" transform="translate(89.89 124.75) rotate(-28.99)"> </text><text class="cls-13" transform="translate(93.25 123.1) rotate(-40.17)">G</text><text class="cls-13" transform="translate(100.48 116.67) rotate(-55.87)">A</text><text class="cls-13" transform="matrix(0.41, -0.91, 0.91, 0.41, 104.86, 109.72)">.</text><text class="cls-14" transform="translate(49.02 93.6) rotate(-77)">M</text><text class="cls-14" transform="matrix(0.52, -0.85, 0.85, 0.52, 50.9, 85.31)">O</text><text class="cls-14" transform="translate(55.03 78.53) rotate(-42.27)">N</text><text class="cls-14" transform="matrix(0.87, -0.49, 0.49, 0.87, 60.25, 73.88)">S</text><text class="cls-14" transform="translate(64.53 71.51) rotate(-19.31)">T</text><text class="cls-14" transform="matrix(0.99, -0.16, 0.16, 0.99, 68.21, 70.15)">E</text><text class="cls-14" transform="translate(73 69.3) rotate(2)">R</text><text class="cls-14" transform="matrix(0.98, 0.19, -0.19, 0.98, 78.5, 69.58)"> </text><text class="cls-14" transform="translate(81.01 69.69) rotate(23.37)">M</text><text class="cls-14" transform="matrix(0.76, 0.65, -0.65, 0.76, 88.79, 73.1)">A</text><text class="cls-14" transform="translate(94.05 77.76) rotate(52.52)">T</text><text class="cls-14" transform="translate(96.58 80.68) rotate(65.06)">C</text><text class="cls-14" transform="translate(99.68 87.35) rotate(80.41)">H</text><polygon class="cls-1" points="30.41 90.8 31.45 94.01 34.82 94.01 32.09 95.99 33.13 99.2 30.41 97.22 27.68 99.2 28.72 95.99 25.99 94.01 29.36 94.01 30.41 90.8"/><polygon class="cls-1" points="119.59 90.8 118.55 94.01 115.18 94.01 117.91 95.99 116.86 99.2 119.59 97.22 122.32 99.2 121.28 95.99 124.01 94.01 120.64 94.01 119.59 90.8"/></svg>