<svg xmlns="http://www.w3.org/2000/svg" viewBox="0 0 150 190"><defs><style>.cls-1{fill:#fff;}.cls-2{fill:#ffd017;}.cls-3{fill:#efb616;}.cls-4{fill:#231f20;}</style></defs><title>Artboard 3</title><g id="Layer_7" data-name="Layer 7"><rect class="cls-1" width="150" height="190"/><path class="cls-2" d="M109.82,85.13c-.75-20.86-16-37.52-34.82-37.52S40.93,64.27,40.18,85.13h-.07v69.4h69.78V85.13Z"/><path class="cls-3" d="M109.89,85.13h-.07c-.75-20.86-16-37.52-34.82-37.52V154.53h34.89Z"/><circle class="cls-4" cx="88.41" cy="78.62" r="5.34"/><path class="cls-2" d="M127.72,41.26l-5.94-5.78-5.94,5.78-5.94-5.78v50.3l8.52,28.57c8.58-3.09,14.76-10.7,15.2-19.73h.06V35.47Z"/><circle class="cls-2" cx="88.15" cy="59.27" r="3.29"/><circle class="cls-2" cx="92.83" cy="64.73" r="2.18"/><circle class="cls-2" cx="94.08" cy="59.46" r="1.6"/><path class="cls-4" d="M109.89,93.57v22.27a25.06,25.06,0,0,0,8.52-1.49l-8.52-28.57Z"/><path class="cls-2" d="M127.72,41.26l-5.94-5.78-5.94,5.78-5.94-5.78v50.3l8.52,28.57c8.58-3.09,14.76-10.7,15.2-19.73h.06V35.47Z"/><path class="cls-4" d="M109.89,93.57v22.27a25.06,25.06,0,0,0,8.52-1.49l-8.52-28.57Z"/><path class="cls-2" d="M22.28,41.26l5.94-5.78,5.94,5.78,5.94-5.78v50.3l-8.52,28.57c-8.58-3.09-14.76-10.7-15.2-19.73h-.06V35.47Z"/><path class="cls-4" d="M40.11,93.57v22.27a25.06,25.06,0,0,1-8.52-1.49l8.52-28.57Z"/><rect class="cls-4" x="57.59" y="92.32" width="34.82" height="23.52" rx="8.05" ry="8.05"/><path class="cls-1" d="M73,115.83H67.2l2.91-2.91Z"/><path class="cls-1" d="M77.91,115.83H72.09L75,112.93Z"/><path class="cls-1" d="M82.8,115.83H77l2.91-4.76Z"/><path class="cls-1" d="M70.11,97.08,67.2,92.32H73Z"/><path class="cls-1" d="M75,95.22l-2.91-2.91h5.81Z"/><path class="cls-1" d="M79.89,95.22,77,92.32H82.8Z"/><path class="cls-4" d="M61.59,73.27a5.34,5.34,0,0,0-5.34,5.34H66.93A5.34,5.34,0,0,0,61.59,73.27Z"/></g></svg>