<svg xmlns="http://www.w3.org/2000/svg" viewBox="0 0 150 190"><defs><style>.cls-1{fill:#fff;}.cls-2{fill:#0ad863;}.cls-3{fill:#17ef37;}.cls-4{fill:#231f20;}.cls-5{fill:#ffd017;}</style></defs><title>Artboard 5</title><g id="Layer_6" data-name="Layer 6"><rect class="cls-1" width="150" height="190"/><path class="cls-2" d="M52.92,44c-2.06,1.31-1.16,6.43,2,11.44l7.47-4.74C59.23,45.68,55,42.68,52.92,44Z"/><path class="cls-3" d="M54,45.54c-1.73,1.1-1,5.39,1.69,9.59l6.26-4C59.33,47,55.77,44.44,54,45.54Z"/><path class="cls-3" d="M97.08,44c2.06,1.31,1.16,6.43-2,11.44L87.6,50.69C90.77,45.68,95,42.68,97.08,44Z"/><path class="cls-2" d="M96,45.54c1.73,1.1,1,5.39-1.69,9.59l-6.26-4C90.67,47,94.23,44.44,96,45.54Z"/><path class="cls-3" d="M109.82,85.13c-.75-20.86-16-37.52-34.82-37.52S40.93,64.27,40.18,85.13h-.07v69.4h69.78V85.13Z"/><path class="cls-2" d="M109.89,85.13h-.07c-.75-20.86-16-37.52-34.82-37.52V154.53h34.89Z"/><path class="cls-4" d="M56.24,78.62a5.34,5.34,0,1,0,5.34-5.34,5.34,5.34,0,0,0-5.34,5.34"/><path class="cls-4" d="M83.07,78.62a5.34,5.34,0,0,0,10.69,0"/><path class="cls-5" d="M127.72,41.26l-5.94-5.78-5.94,5.78-5.94-5.78v50.3l8.52,28.57c8.58-3.09,14.76-10.7,15.2-19.73h.06V35.47Z"/><path class="cls-4" d="M109.89,93.57v22.27a25.06,25.06,0,0,0,8.52-1.49l-8.52-28.57Z"/><path class="cls-3" d="M127.72,41.26l-5.94-5.78-5.94,5.78-5.94-5.78v50.3l8.52,28.57c8.58-3.09,14.76-10.7,15.2-19.73h.06V35.47Z"/><path class="cls-4" d="M109.89,93.57v22.27a25.06,25.06,0,0,0,8.52-1.49l-8.52-28.57Z"/><path class="cls-3" d="M22.28,41.26l5.94-5.78,5.94,5.78,5.94-5.78v50.3l-8.52,28.57c-8.58-3.09-14.76-10.7-15.2-19.73h-.06V35.47Z"/><path class="cls-4" d="M40.11,93.57v22.27a25.06,25.06,0,0,1-8.52-1.49l8.52-28.57Z"/><rect class="cls-4" x="57.59" y="92.32" width="34.82" height="23.52" rx="8.05" ry="8.05"/><path class="cls-1" d="M73,115.83H67.2l2.91-11Z"/><path class="cls-1" d="M82.8,115.83H77l2.91-11Z"/><path class="cls-1" d="M70.11,96.69,67.2,92.32H73Z"/><path class="cls-1" d="M79.89,96.69,77,92.32H82.8Z"/><circle class="cls-2" cx="45.32" cy="131.51" r="4.02"/><circle class="cls-2" cx="49.34" cy="139.55" r="2.25"/><circle class="cls-2" cx="44.21" cy="138.28" r="1.59"/><path class="cls-2" d="M102.68,60a2.28,2.28,0,0,0-3.18-.53l2.66,3.71A2.28,2.28,0,0,0,102.68,60Z"/><path class="cls-2" d="M104.1,63.39a1.64,1.64,0,0,0-2.29-.38l1.91,2.67A1.64,1.64,0,0,0,104.1,63.39Z"/></g></svg>