<svg xmlns="http://www.w3.org/2000/svg" viewBox="0 0 150 190"><defs><style>.cls-1{fill:#fff;}.cls-2{fill:#194bd8;}.cls-3{fill:#1856ef;}.cls-4{fill:#231f20;}.cls-5{fill:#ffd017;}.cls-6{fill:#dd071c;}</style></defs><title>Artboard 4</title><g id="Layer_5" data-name="Layer 5"><rect class="cls-1" width="150" height="190"/><polygon class="cls-2" points="38.88 102.42 29.75 143.88 38.93 134.7 48.11 143.88 57.3 134.7 66.48 143.88 75 135.36 75 102.42 38.88 102.42"/><polygon class="cls-3" points="111.08 102.42 75 102.42 75 135.36 75.66 134.7 84.84 143.88 94.02 134.7 102.54 143.22 111.07 134.7 120.25 143.88 111.08 102.42"/><polygon class="cls-2" points="56.4 56.45 52.31 37.55 62.54 52.31 56.4 56.45"/><polygon class="cls-3" points="93.6 56.45 97.69 37.55 87.46 52.31 93.6 56.45"/><path class="cls-3" d="M109.52,84.72C108.78,64,93.63,47.52,75,47.52S41.22,64,40.48,84.72h-.07v68.81h69.19V84.72Z"/><path class="cls-2" d="M109.59,84.72h-.07C108.78,64,93.63,47.52,75,47.52v106h34.59Z"/><circle class="cls-4" cx="61.7" cy="78.26" r="5.3"/><circle class="cls-4" cx="88.3" cy="78.26" r="5.3"/><path class="cls-5" d="M127.27,41.22l-5.89-5.73-5.89,5.73-5.89-5.73V85.36L118,113.68c8.5-3.07,14.63-10.61,15.07-19.56h.06V35.49Z"/><path class="cls-4" d="M109.59,93.09v22.08a24.84,24.84,0,0,0,8.44-1.48l-8.44-28.33Z"/><path class="cls-3" d="M127.27,41.22l-5.89-5.73-5.89,5.73-5.89-5.73V85.36L118,113.68c8.5-3.07,14.63-10.61,15.07-19.56h.06V35.49Z"/><path class="cls-4" d="M109.59,93.09v22.08a24.84,24.84,0,0,0,8.44-1.48l-8.44-28.33Z"/><path class="cls-3" d="M22.73,41.22l5.89-5.73,5.89,5.73,5.89-5.73V85.36L32,113.68c-8.5-3.07-14.63-10.61-15.07-19.56h-.06V35.49Z"/><path class="cls-4" d="M40.41,93.09v22.08A24.84,24.84,0,0,1,32,113.68l8.44-28.33Z"/><rect class="cls-4" x="57.74" y="91.85" width="34.53" height="23.32" rx="7.98" ry="7.98"/><path class="cls-1" d="M73,115.16H67.27l2.88-2.88Z"/><path class="cls-1" d="M77.88,115.16H72.12L75,112.28Z"/><path class="cls-1" d="M82.73,115.16H77l2.88-2.88Z"/><path class="cls-1" d="M70.15,96.18l-2.88-4.33H73Z"/><path class="cls-1" d="M79.85,96.18,77,91.85h5.76Z"/><polygon class="cls-6" points="68.71 94.01 71.59 94.01 70.15 96.18 68.71 94.01"/><polygon class="cls-6" points="78.41 94.01 81.29 94.01 79.85 96.18 78.41 94.01"/></g></svg>